<svg width="219" height="28" viewBox="0 0 219 28" fill="none" xmlns="http://www.w3.org/2000/svg">
<path d="M15.984 5.08C15.872 5.048 15.608 5.032 15.192 5.032C14.744 5.032 14.328 5.472 13.944 6.352C13.864 6.544 13.656 7.16 13.32 8.2C12.28 11.432 10.832 16.104 8.976 22.216C8.816 22.152 8.6 22.12 8.328 22.12C8.008 22.12 7.776 22.152 7.632 22.216C6.288 17.736 4.704 12.848 2.88 7.552C2.304 5.872 1.712 5.032 1.104 5.032C1.056 5.032 0.808 5.048 0.36 5.08C0.392 4.92 0.408 4.784 0.408 4.672C0.408 4.576 0.392 4.472 0.36 4.36C1.256 4.408 2.328 4.432 3.576 4.432C4.776 4.432 5.784 4.408 6.6 4.36C6.568 4.504 6.552 4.624 6.552 4.72C6.552 4.816 6.568 4.936 6.6 5.08C6.216 5.048 5.976 5.032 5.88 5.032C5.368 5.032 5.112 5.312 5.112 5.872C5.112 6.208 5.192 6.656 5.352 7.216C6.456 11.008 7.56 14.504 8.664 17.704C8.744 18.12 8.832 18.568 8.928 19.048C8.944 19.096 8.976 19.12 9.024 19.12C9.104 19.12 9.16 19.072 9.192 18.976C9.224 18.784 9.32 18.4 9.48 17.824C10.504 14.496 11.4 11.304 12.168 8.248C12.472 7.048 12.624 6.232 12.624 5.8C12.624 5.304 12.368 5.056 11.856 5.056C11.776 5.056 11.496 5.064 11.016 5.08C11.048 4.968 11.064 4.856 11.064 4.744C11.064 4.632 11.048 4.504 11.016 4.36C11.576 4.392 12.368 4.408 13.392 4.408C14.432 4.408 15.296 4.392 15.984 4.36C15.968 4.504 15.96 4.632 15.96 4.744C15.96 4.84 15.968 4.952 15.984 5.08ZM23.1519 22C22.1279 21.952 21.0799 21.928 20.0079 21.928C19.1599 21.928 18.0559 21.952 16.6959 22C16.7279 21.888 16.7439 21.784 16.7439 21.688C16.7439 21.576 16.7279 21.44 16.6959 21.28C17.2239 21.312 17.5439 21.328 17.6559 21.328C18.0879 21.328 18.3759 21.2 18.5199 20.944C18.6639 20.688 18.7439 20.248 18.7599 19.624C18.7919 18.216 18.8079 16.04 18.8079 13.096C18.8079 10.216 18.7919 8.104 18.7599 6.76C18.7439 6.12 18.6559 5.672 18.4959 5.416C18.3519 5.16 18.0559 5.032 17.6079 5.032C17.4799 5.032 17.1759 5.048 16.6959 5.08C16.7119 4.968 16.7199 4.856 16.7199 4.744C16.7199 4.632 16.7119 4.504 16.6959 4.36C17.7359 4.408 18.8479 4.432 20.0319 4.432C21.2319 4.432 22.2719 4.408 23.1519 4.36C23.1199 4.52 23.1039 4.648 23.1039 4.744C23.1039 4.84 23.1199 4.952 23.1519 5.08C22.6239 5.048 22.3119 5.032 22.2159 5.032C21.7519 5.032 21.4399 5.224 21.2799 5.608C21.1839 5.816 21.1359 6.2 21.1359 6.76C21.1039 9.16 21.0879 11.416 21.0879 13.528C21.0879 15.736 21.1039 17.768 21.1359 19.624C21.1519 20.232 21.2159 20.656 21.3279 20.896C21.4719 21.184 21.7279 21.328 22.0959 21.328C22.1599 21.328 22.5119 21.312 23.1519 21.28C23.1199 21.424 23.1039 21.552 23.1039 21.664C23.1039 21.76 23.1199 21.872 23.1519 22ZM37.0918 16.432C36.7878 18.288 36.1318 19.752 35.1238 20.824C34.1158 21.88 32.8518 22.408 31.3318 22.408C29.4918 22.408 27.9398 21.64 26.6758 20.104C25.2518 18.36 24.5398 16.08 24.5398 13.264C24.5398 10.304 25.2918 7.936 26.7958 6.16C28.0438 4.688 29.5318 3.952 31.2598 3.952C32.2998 3.952 33.4038 4.344 34.5718 5.128C34.8598 5.32 35.0918 5.416 35.2678 5.416C35.5878 5.416 35.7878 4.936 35.8678 3.976C35.9478 4.008 36.0678 4.024 36.2278 4.024C36.3878 4.024 36.5078 4.008 36.5878 3.976C36.5718 4.296 36.5638 4.824 36.5638 5.56C36.5638 7.656 36.6358 9.416 36.7798 10.84C36.6998 10.824 36.6278 10.816 36.5638 10.816C36.4038 10.816 36.2358 10.848 36.0598 10.912C35.8198 8.928 35.2838 7.392 34.4518 6.304C33.6198 5.216 32.5878 4.672 31.3558 4.672C29.9318 4.672 28.8598 5.568 28.1398 7.36C27.5478 8.864 27.2518 10.84 27.2518 13.288C27.2518 15.64 27.5798 17.568 28.2358 19.072C28.9878 20.8 30.0918 21.664 31.5478 21.664C32.7478 21.664 33.7718 21.216 34.6198 20.32C35.4678 19.408 36.0438 18.064 36.3478 16.288C36.5398 16.4 36.7318 16.456 36.9238 16.456C36.9718 16.456 37.0278 16.448 37.0918 16.432ZM51.9133 10.912C51.8493 10.896 51.7693 10.888 51.6733 10.888C51.5773 10.888 51.4173 10.912 51.1933 10.96C50.7613 7.04 49.8733 5.08 48.5293 5.08H47.0173C46.6173 5.08 46.4093 5.4 46.3933 6.04C46.3453 7.576 46.3213 9.616 46.3213 12.16C46.3213 14.816 46.3453 17.296 46.3933 19.6C46.4093 20.176 46.4733 20.584 46.5853 20.824C46.7613 21.16 47.1133 21.328 47.6413 21.328C47.8013 21.328 48.1213 21.312 48.6013 21.28C48.5693 21.392 48.5533 21.496 48.5533 21.592C48.5533 21.704 48.5693 21.84 48.6013 22C47.6253 21.968 46.4973 21.952 45.2173 21.952C43.6653 21.952 42.5293 21.968 41.8093 22C41.8413 21.888 41.8573 21.776 41.8573 21.664C41.8573 21.552 41.8413 21.424 41.8093 21.28C42.2733 21.312 42.5853 21.328 42.7453 21.328C43.2733 21.328 43.6333 21.16 43.8253 20.824C43.9373 20.584 44.0013 20.176 44.0173 19.6C44.0493 17.696 44.0653 15.24 44.0653 12.232C44.0653 9.416 44.0493 7.36 44.0173 6.064C44.0173 5.76 43.9933 5.544 43.9453 5.416C43.8653 5.192 43.6973 5.08 43.4413 5.08H41.8813C41.0493 5.08 40.4253 5.648 40.0093 6.784C39.7053 7.6 39.4333 9 39.1933 10.984C39.0653 10.92 38.9133 10.888 38.7373 10.888C38.6413 10.888 38.5533 10.896 38.4733 10.912C38.6333 9.28 38.7133 7.368 38.7133 5.176V4.384C40.5373 4.416 42.7133 4.432 45.2413 4.432C48.2653 4.432 50.4013 4.416 51.6493 4.384C51.6493 4.384 51.6493 4.632 51.6493 5.128C51.6493 7.144 51.7373 9.072 51.9133 10.912ZM67.1417 13.12C67.1417 15.584 66.6137 17.664 65.5577 19.36C64.3257 21.392 62.5577 22.408 60.2537 22.408C58.0617 22.408 56.3337 21.392 55.0697 19.36C53.9977 17.616 53.4617 15.576 53.4617 13.24C53.4617 10.888 54.0057 8.824 55.0937 7.048C56.3577 4.984 58.0937 3.952 60.3017 3.952C62.4937 3.952 64.2217 4.968 65.4857 7C66.5897 8.76 67.1417 10.8 67.1417 13.12ZM64.4537 13.24C64.4537 11.128 64.2377 9.368 63.8057 7.96C63.1337 5.768 61.9737 4.672 60.3257 4.672C59.2857 4.672 58.4377 5.096 57.7817 5.944C56.7097 7.32 56.1737 9.712 56.1737 13.12C56.1737 15.232 56.3897 16.984 56.8217 18.376C57.5097 20.584 58.6777 21.688 60.3257 21.688C61.9577 21.688 63.1177 20.6 63.8057 18.424C64.2377 17.032 64.4537 15.304 64.4537 13.24ZM82.9134 18.232C82.8654 19.864 82.5534 21.008 81.9774 21.664C81.5294 22.176 80.9294 22.432 80.1774 22.432C79.4254 22.432 78.8334 22.12 78.4014 21.496C77.9694 20.856 77.6894 19.592 77.5614 17.704C77.4654 16.152 77.2414 15.064 76.8894 14.44C76.4414 13.608 75.6654 13.192 74.5614 13.192H73.6974C73.4094 13.192 73.2254 13.224 73.1454 13.288C73.0814 13.352 73.0494 13.512 73.0494 13.768C73.0494 13.784 73.0654 15.728 73.0974 19.6C73.0974 20.208 73.1614 20.632 73.2894 20.872C73.4654 21.176 73.8014 21.328 74.2974 21.328C74.4414 21.328 74.7614 21.312 75.2574 21.28C75.2254 21.44 75.2094 21.576 75.2094 21.688C75.2094 21.784 75.2254 21.888 75.2574 22C74.2654 21.952 73.1774 21.928 71.9934 21.928C71.2254 21.928 70.1134 21.952 68.6574 22C68.6894 21.904 68.7054 21.784 68.7054 21.64C68.7054 21.496 68.6894 21.376 68.6574 21.28C69.1214 21.312 69.4174 21.328 69.5454 21.328C70.0414 21.328 70.3694 21.144 70.5294 20.776C70.6414 20.552 70.7054 20.16 70.7214 19.6C70.7534 18.032 70.7694 15.92 70.7694 13.264C70.7694 10.656 70.7534 8.488 70.7214 6.76C70.7054 6.2 70.6494 5.8 70.5534 5.56C70.4094 5.208 70.1054 5.032 69.6414 5.032C69.5454 5.032 69.2094 5.048 68.6334 5.08C68.6654 4.968 68.6814 4.856 68.6814 4.744C68.6814 4.632 68.6654 4.504 68.6334 4.36C69.6894 4.408 70.6414 4.432 71.4894 4.432C71.9374 4.432 72.6174 4.424 73.5294 4.408C74.4414 4.376 75.1214 4.36 75.5694 4.36C77.1054 4.36 78.3694 4.696 79.3614 5.368C80.4974 6.136 81.0654 7.256 81.0654 8.728C81.0654 9.672 80.7534 10.536 80.1294 11.32C79.5214 12.104 78.7614 12.6 77.8494 12.808C77.5134 12.888 77.2814 12.928 77.1534 12.928C77.1054 12.928 77.0334 12.928 76.9374 12.928C76.8574 12.944 76.7934 12.952 76.7454 12.952C76.6974 12.952 76.6734 12.976 76.6734 13.024C76.6734 13.056 76.6974 13.08 76.7454 13.096C76.7934 13.112 76.9134 13.128 77.1054 13.144C77.2974 13.16 77.5134 13.232 77.7534 13.36C78.6494 13.808 79.2814 14.672 79.6494 15.952C79.8574 17.056 80.0654 18.16 80.2734 19.264C80.5134 20.448 80.8174 21.04 81.1854 21.04C81.5054 21.04 81.7614 20.768 81.9534 20.224C82.1134 19.728 82.1934 19.112 82.1934 18.376V18.232C82.3534 18.264 82.4894 18.28 82.6014 18.28C82.6974 18.28 82.8014 18.264 82.9134 18.232ZM78.4974 8.896C78.4974 6.352 77.3694 5.08 75.1134 5.08H74.7534C74.0334 5.08 73.5774 5.168 73.3854 5.344C73.1934 5.52 73.0974 5.944 73.0974 6.616C73.0654 10.168 73.0494 11.952 73.0494 11.968C73.0494 12.192 73.0894 12.336 73.1694 12.4C73.2494 12.448 73.4094 12.472 73.6494 12.472H74.3214C75.7774 12.472 76.8334 12.192 77.4894 11.632C78.1614 11.056 78.4974 10.144 78.4974 8.896ZM104.601 5.08C104.489 5.048 104.225 5.032 103.809 5.032C103.361 5.032 102.945 5.472 102.561 6.352C102.481 6.544 102.273 7.16 101.937 8.2C100.897 11.432 99.4492 16.104 97.5932 22.216C97.4332 22.152 97.2172 22.12 96.9452 22.12C96.6252 22.12 96.3932 22.152 96.2492 22.216C94.9052 17.736 93.3212 12.848 91.4972 7.552C90.9212 5.872 90.3292 5.032 89.7212 5.032C89.6732 5.032 89.4252 5.048 88.9772 5.08C89.0092 4.92 89.0252 4.784 89.0252 4.672C89.0252 4.576 89.0092 4.472 88.9772 4.36C89.8732 4.408 90.9452 4.432 92.1932 4.432C93.3932 4.432 94.4012 4.408 95.2172 4.36C95.1852 4.504 95.1692 4.624 95.1692 4.72C95.1692 4.816 95.1852 4.936 95.2172 5.08C94.8332 5.048 94.5932 5.032 94.4972 5.032C93.9852 5.032 93.7292 5.312 93.7292 5.872C93.7292 6.208 93.8092 6.656 93.9692 7.216C95.0732 11.008 96.1772 14.504 97.2812 17.704C97.3612 18.12 97.4492 18.568 97.5452 19.048C97.5612 19.096 97.5932 19.12 97.6412 19.12C97.7212 19.12 97.7772 19.072 97.8092 18.976C97.8412 18.784 97.9372 18.4 98.0972 17.824C99.1212 14.496 100.017 11.304 100.785 8.248C101.089 7.048 101.241 6.232 101.241 5.8C101.241 5.304 100.985 5.056 100.473 5.056C100.393 5.056 100.113 5.064 99.6332 5.08C99.6652 4.968 99.6812 4.856 99.6812 4.744C99.6812 4.632 99.6652 4.504 99.6332 4.36C100.193 4.392 100.985 4.408 102.009 4.408C103.049 4.408 103.913 4.392 104.601 4.36C104.585 4.504 104.577 4.632 104.577 4.744C104.577 4.84 104.585 4.952 104.601 5.08ZM111.769 22C110.745 21.952 109.697 21.928 108.625 21.928C107.777 21.928 106.673 21.952 105.313 22C105.345 21.888 105.361 21.784 105.361 21.688C105.361 21.576 105.345 21.44 105.313 21.28C105.841 21.312 106.161 21.328 106.273 21.328C106.705 21.328 106.993 21.2 107.137 20.944C107.281 20.688 107.361 20.248 107.377 19.624C107.409 18.216 107.425 16.04 107.425 13.096C107.425 10.216 107.409 8.104 107.377 6.76C107.361 6.12 107.273 5.672 107.113 5.416C106.969 5.16 106.673 5.032 106.225 5.032C106.097 5.032 105.793 5.048 105.313 5.08C105.329 4.968 105.337 4.856 105.337 4.744C105.337 4.632 105.329 4.504 105.313 4.36C106.353 4.408 107.465 4.432 108.649 4.432C109.849 4.432 110.889 4.408 111.769 4.36C111.737 4.52 111.721 4.648 111.721 4.744C111.721 4.84 111.737 4.952 111.769 5.08C111.241 5.048 110.929 5.032 110.833 5.032C110.369 5.032 110.057 5.224 109.897 5.608C109.801 5.816 109.753 6.2 109.753 6.76C109.721 9.16 109.705 11.416 109.705 13.528C109.705 15.736 109.721 17.768 109.753 19.624C109.769 20.232 109.833 20.656 109.945 20.896C110.089 21.184 110.345 21.328 110.713 21.328C110.777 21.328 111.129 21.312 111.769 21.28C111.737 21.424 111.721 21.552 111.721 21.664C111.721 21.76 111.737 21.872 111.769 22ZM125.709 16.432C125.405 18.288 124.749 19.752 123.741 20.824C122.733 21.88 121.469 22.408 119.949 22.408C118.109 22.408 116.557 21.64 115.293 20.104C113.869 18.36 113.157 16.08 113.157 13.264C113.157 10.304 113.909 7.936 115.413 6.16C116.661 4.688 118.149 3.952 119.877 3.952C120.917 3.952 122.021 4.344 123.189 5.128C123.477 5.32 123.709 5.416 123.885 5.416C124.205 5.416 124.405 4.936 124.485 3.976C124.565 4.008 124.685 4.024 124.845 4.024C125.005 4.024 125.125 4.008 125.205 3.976C125.189 4.296 125.181 4.824 125.181 5.56C125.181 7.656 125.253 9.416 125.397 10.84C125.317 10.824 125.245 10.816 125.181 10.816C125.021 10.816 124.853 10.848 124.677 10.912C124.437 8.928 123.901 7.392 123.069 6.304C122.237 5.216 121.205 4.672 119.973 4.672C118.549 4.672 117.477 5.568 116.757 7.36C116.165 8.864 115.869 10.84 115.869 13.288C115.869 15.64 116.197 17.568 116.853 19.072C117.605 20.8 118.709 21.664 120.165 21.664C121.365 21.664 122.389 21.216 123.237 20.32C124.085 19.408 124.661 18.064 124.965 16.288C125.157 16.4 125.349 16.456 125.541 16.456C125.589 16.456 125.645 16.448 125.709 16.432ZM140.531 10.912C140.467 10.896 140.387 10.888 140.291 10.888C140.195 10.888 140.035 10.912 139.811 10.96C139.379 7.04 138.491 5.08 137.147 5.08H135.635C135.235 5.08 135.027 5.4 135.011 6.04C134.963 7.576 134.939 9.616 134.939 12.16C134.939 14.816 134.963 17.296 135.011 19.6C135.027 20.176 135.091 20.584 135.203 20.824C135.379 21.16 135.731 21.328 136.259 21.328C136.419 21.328 136.739 21.312 137.219 21.28C137.187 21.392 137.171 21.496 137.171 21.592C137.171 21.704 137.187 21.84 137.219 22C136.243 21.968 135.115 21.952 133.835 21.952C132.283 21.952 131.147 21.968 130.427 22C130.459 21.888 130.475 21.776 130.475 21.664C130.475 21.552 130.459 21.424 130.427 21.28C130.891 21.312 131.203 21.328 131.363 21.328C131.891 21.328 132.251 21.16 132.443 20.824C132.555 20.584 132.619 20.176 132.635 19.6C132.667 17.696 132.683 15.24 132.683 12.232C132.683 9.416 132.667 7.36 132.635 6.064C132.635 5.76 132.611 5.544 132.562 5.416C132.483 5.192 132.315 5.08 132.059 5.08H130.499C129.667 5.08 129.043 5.648 128.627 6.784C128.323 7.6 128.051 9 127.811 10.984C127.683 10.92 127.531 10.888 127.354 10.888C127.259 10.888 127.171 10.896 127.091 10.912C127.251 9.28 127.331 7.368 127.331 5.176V4.384C129.155 4.416 131.331 4.432 133.859 4.432C136.883 4.432 139.019 4.416 140.267 4.384C140.267 4.384 140.267 4.632 140.267 5.128C140.267 7.144 140.355 9.072 140.531 10.912ZM155.759 13.12C155.759 15.584 155.231 17.664 154.175 19.36C152.943 21.392 151.175 22.408 148.871 22.408C146.679 22.408 144.951 21.392 143.687 19.36C142.615 17.616 142.079 15.576 142.079 13.24C142.079 10.888 142.623 8.824 143.711 7.048C144.975 4.984 146.711 3.952 148.919 3.952C151.111 3.952 152.839 4.968 154.103 7C155.207 8.76 155.759 10.8 155.759 13.12ZM153.071 13.24C153.071 11.128 152.855 9.368 152.423 7.96C151.751 5.768 150.591 4.672 148.943 4.672C147.903 4.672 147.055 5.096 146.399 5.944C145.327 7.32 144.791 9.712 144.791 13.12C144.791 15.232 145.007 16.984 145.439 18.376C146.127 20.584 147.295 21.688 148.943 21.688C150.575 21.688 151.735 20.6 152.423 18.424C152.855 17.032 153.071 15.304 153.071 13.24ZM171.531 18.232C171.483 19.864 171.171 21.008 170.595 21.664C170.147 22.176 169.547 22.432 168.795 22.432C168.043 22.432 167.451 22.12 167.019 21.496C166.587 20.856 166.307 19.592 166.179 17.704C166.083 16.152 165.859 15.064 165.507 14.44C165.059 13.608 164.283 13.192 163.179 13.192H162.315C162.027 13.192 161.843 13.224 161.763 13.288C161.699 13.352 161.667 13.512 161.667 13.768C161.667 13.784 161.683 15.728 161.715 19.6C161.715 20.208 161.779 20.632 161.907 20.872C162.083 21.176 162.419 21.328 162.915 21.328C163.059 21.328 163.379 21.312 163.875 21.28C163.843 21.44 163.827 21.576 163.827 21.688C163.827 21.784 163.843 21.888 163.875 22C162.883 21.952 161.795 21.928 160.611 21.928C159.843 21.928 158.731 21.952 157.275 22C157.307 21.904 157.323 21.784 157.323 21.64C157.323 21.496 157.307 21.376 157.275 21.28C157.739 21.312 158.035 21.328 158.163 21.328C158.659 21.328 158.987 21.144 159.147 20.776C159.259 20.552 159.323 20.16 159.339 19.6C159.371 18.032 159.387 15.92 159.387 13.264C159.387 10.656 159.371 8.488 159.339 6.76C159.323 6.2 159.267 5.8 159.171 5.56C159.027 5.208 158.723 5.032 158.259 5.032C158.163 5.032 157.827 5.048 157.251 5.08C157.283 4.968 157.299 4.856 157.299 4.744C157.299 4.632 157.283 4.504 157.251 4.36C158.307 4.408 159.259 4.432 160.107 4.432C160.555 4.432 161.235 4.424 162.147 4.408C163.059 4.376 163.739 4.36 164.187 4.36C165.723 4.36 166.987 4.696 167.979 5.368C169.115 6.136 169.683 7.256 169.683 8.728C169.683 9.672 169.371 10.536 168.747 11.32C168.139 12.104 167.379 12.6 166.467 12.808C166.131 12.888 165.899 12.928 165.771 12.928C165.723 12.928 165.651 12.928 165.555 12.928C165.475 12.944 165.411 12.952 165.363 12.952C165.315 12.952 165.291 12.976 165.291 13.024C165.291 13.056 165.315 13.08 165.363 13.096C165.411 13.112 165.531 13.128 165.723 13.144C165.915 13.16 166.131 13.232 166.371 13.36C167.267 13.808 167.899 14.672 168.267 15.952C168.475 17.056 168.683 18.16 168.891 19.264C169.131 20.448 169.435 21.04 169.803 21.04C170.123 21.04 170.379 20.768 170.571 20.224C170.731 19.728 170.811 19.112 170.811 18.376V18.232C170.971 18.264 171.107 18.28 171.219 18.28C171.315 18.28 171.419 18.264 171.531 18.232ZM167.115 8.896C167.115 6.352 165.987 5.08 163.731 5.08H163.371C162.651 5.08 162.195 5.168 162.003 5.344C161.811 5.52 161.715 5.944 161.715 6.616C161.683 10.168 161.667 11.952 161.667 11.968C161.667 12.192 161.707 12.336 161.787 12.4C161.867 12.448 162.027 12.472 162.267 12.472H162.939C164.395 12.472 165.451 12.192 166.107 11.632C166.779 11.056 167.115 10.144 167.115 8.896ZM184.591 15.568C184.383 17.2 184.279 19.048 184.279 21.112C184.279 21.32 184.287 21.632 184.303 22.048C181.775 21.968 179.855 21.928 178.543 21.928C176.335 21.928 174.183 21.952 172.087 22C172.119 21.856 172.135 21.728 172.135 21.616C172.135 21.504 172.119 21.392 172.087 21.28C172.663 21.296 172.975 21.304 173.023 21.304C173.487 21.304 173.799 21.128 173.959 20.776C174.039 20.568 174.087 20.192 174.103 19.648C174.135 17.664 174.151 15.64 174.151 13.576C174.151 11.592 174.135 9.472 174.103 7.216C174.087 5.76 173.727 5.032 173.023 5.032C173.007 5.032 172.687 5.048 172.063 5.08C172.095 4.936 172.111 4.808 172.111 4.696C172.111 4.584 172.095 4.472 172.063 4.36C173.647 4.408 175.535 4.432 177.727 4.432C179.743 4.432 181.743 4.408 183.727 4.36C183.711 4.632 183.703 4.936 183.703 5.272C183.703 6.28 183.807 7.936 184.015 10.24C183.919 10.224 183.839 10.216 183.775 10.216C183.647 10.216 183.487 10.248 183.295 10.312C183.039 8.408 182.559 7.04 181.855 6.208C181.215 5.456 180.311 5.08 179.143 5.08H177.847C177.223 5.08 176.831 5.168 176.671 5.344C176.527 5.504 176.455 5.912 176.455 6.568L176.431 11.752C176.431 12.2 176.591 12.424 176.911 12.424H177.943C179.175 12.424 179.839 11.216 179.935 8.8C180.063 8.848 180.183 8.872 180.295 8.872C180.407 8.872 180.527 8.848 180.655 8.8C180.591 10.112 180.559 11.488 180.559 12.928C180.559 14.432 180.591 15.768 180.655 16.936C180.495 16.92 180.359 16.912 180.247 16.912C180.151 16.912 180.047 16.92 179.935 16.936C179.823 14.408 179.143 13.144 177.895 13.144H176.959C176.607 13.144 176.431 13.376 176.431 13.84L176.455 19.264C176.455 20.608 176.943 21.28 177.919 21.28H179.575C182.007 21.28 183.439 19.352 183.871 15.496C183.999 15.56 184.159 15.592 184.351 15.592C184.431 15.592 184.511 15.584 184.591 15.568ZM197.768 15.496C197.56 17.192 197.456 19.024 197.456 20.992C197.456 21.312 197.464 21.648 197.48 22C195.832 21.936 193.072 21.904 189.2 21.904C188.416 21.904 187.712 21.92 187.088 21.952C186.48 21.984 186.12 22 186.008 22C186.04 21.872 186.056 21.76 186.056 21.664C186.056 21.552 186.04 21.424 186.008 21.28C186.52 21.312 186.832 21.328 186.944 21.328C187.424 21.328 187.736 21.144 187.88 20.776C187.976 20.552 188.032 20.16 188.048 19.6C188.08 18.24 188.096 16.24 188.096 13.6C188.096 10.864 188.08 8.584 188.048 6.76C188.032 6.2 187.984 5.808 187.904 5.584C187.744 5.216 187.424 5.032 186.944 5.032C186.848 5.032 186.536 5.048 186.008 5.08C186.04 4.968 186.056 4.864 186.056 4.768C186.056 4.656 186.04 4.52 186.008 4.36C187.368 4.408 188.448 4.432 189.248 4.432C190.384 4.432 191.504 4.408 192.608 4.36C192.576 4.504 192.56 4.632 192.56 4.744C192.56 4.84 192.576 4.952 192.608 5.08C192.176 5.048 191.872 5.032 191.696 5.032C191.168 5.032 190.808 5.2 190.616 5.536C190.504 5.76 190.44 6.168 190.424 6.76C190.376 8.936 190.352 11.248 190.352 13.696C190.352 16.112 190.376 18.136 190.424 19.768C190.44 20.344 190.544 20.744 190.736 20.968C190.944 21.176 191.288 21.28 191.768 21.28H192.992C194.176 21.28 195.08 20.848 195.704 19.984C196.344 19.104 196.792 17.584 197.048 15.424C197.176 15.488 197.336 15.52 197.528 15.52C197.624 15.52 197.704 15.512 197.768 15.496ZM210.378 15.496C210.17 17.192 210.066 19.024 210.066 20.992C210.066 21.312 210.074 21.648 210.09 22C208.442 21.936 205.682 21.904 201.81 21.904C201.026 21.904 200.322 21.92 199.698 21.952C199.09 21.984 198.73 22 198.618 22C198.65 21.872 198.666 21.76 198.666 21.664C198.666 21.552 198.65 21.424 198.618 21.28C199.13 21.312 199.442 21.328 199.554 21.328C200.034 21.328 200.346 21.144 200.49 20.776C200.586 20.552 200.642 20.16 200.658 19.6C200.69 18.24 200.706 16.24 200.706 13.6C200.706 10.864 200.69 8.584 200.658 6.76C200.642 6.2 200.594 5.808 200.514 5.584C200.354 5.216 200.034 5.032 199.554 5.032C199.458 5.032 199.146 5.048 198.618 5.08C198.65 4.968 198.666 4.864 198.666 4.768C198.666 4.656 198.65 4.52 198.618 4.36C199.978 4.408 201.058 4.432 201.858 4.432C202.994 4.432 204.114 4.408 205.218 4.36C205.186 4.504 205.17 4.632 205.17 4.744C205.17 4.84 205.186 4.952 205.218 5.08C204.786 5.048 204.482 5.032 204.306 5.032C203.778 5.032 203.418 5.2 203.226 5.536C203.114 5.76 203.05 6.168 203.034 6.76C202.986 8.936 202.962 11.248 202.962 13.696C202.962 16.112 202.986 18.136 203.034 19.768C203.05 20.344 203.154 20.744 203.346 20.968C203.554 21.176 203.898 21.28 204.378 21.28H205.602C206.786 21.28 207.69 20.848 208.314 19.984C208.954 19.104 209.402 17.584 209.658 15.424C209.786 15.488 209.946 15.52 210.138 15.52C210.234 15.52 210.314 15.512 210.378 15.496ZM217.683 22C216.659 21.952 215.611 21.928 214.539 21.928C213.691 21.928 212.587 21.952 211.227 22C211.259 21.888 211.275 21.784 211.275 21.688C211.275 21.576 211.259 21.44 211.227 21.28C211.755 21.312 212.075 21.328 212.187 21.328C212.619 21.328 212.907 21.2 213.051 20.944C213.195 20.688 213.275 20.248 213.291 19.624C213.323 18.216 213.339 16.04 213.339 13.096C213.339 10.216 213.323 8.104 213.291 6.76C213.275 6.12 213.187 5.672 213.027 5.416C212.883 5.16 212.587 5.032 212.139 5.032C212.011 5.032 211.707 5.048 211.227 5.08C211.243 4.968 211.251 4.856 211.251 4.744C211.251 4.632 211.243 4.504 211.227 4.36C212.267 4.408 213.379 4.432 214.563 4.432C215.763 4.432 216.803 4.408 217.683 4.36C217.651 4.52 217.635 4.648 217.635 4.744C217.635 4.84 217.651 4.952 217.683 5.08C217.155 5.048 216.843 5.032 216.747 5.032C216.283 5.032 215.971 5.224 215.811 5.608C215.715 5.816 215.667 6.2 215.667 6.76C215.635 9.16 215.619 11.416 215.619 13.528C215.619 15.736 215.635 17.768 215.667 19.624C215.683 20.232 215.747 20.656 215.859 20.896C216.003 21.184 216.259 21.328 216.627 21.328C216.691 21.328 217.043 21.312 217.683 21.28C217.651 21.424 217.635 21.552 217.635 21.664C217.635 21.76 217.651 21.872 217.683 22Z" fill="white"/>
</svg>
